<svg width="86" height="36" viewBox="0 0 86 36" fill="none" xmlns="http://www.w3.org/2000/svg">
<g id="logo-1pass">
<g id="vector">
<path d="M1.15795 35.7623L4.98836 9.6275C4.30921 9.72394 3.47386 9.81705 2.49588 9.91349C1.5179 10.0099 0.685943 10.0565 0 10.0565L0.730084 5.02838C1.45812 5.02086 2.17901 4.88688 2.85923 4.63265C3.59227 4.36967 4.28385 4.00696 4.91366 3.5552C5.53892 3.10966 6.09484 2.57757 6.564 1.97561C7.01859 1.39375 7.33212 0.718283 7.48085 0.000284159H12.836L7.61668 35.7657L1.15795 35.7623Z" fill="#ffffff"/>
<path d="M50.5866 1.90577C49.5383 0.639875 48.034 0.00471624 46.0736 0.000282395H44.7561C42.9091 -0.0159322 41.127 0.666668 39.7813 1.90577C38.3619 3.1761 37.4813 4.93636 37.1394 7.18661L36.0459 14.2133H42.1345L43.1533 7.33293C43.3502 5.75001 43.8382 4.95964 44.6168 4.96187H44.7629C45.4997 4.96187 45.7816 5.75333 45.5744 7.33293L44.1041 17.2461C43.5737 16.866 43.0049 16.5406 42.4062 16.2751C41.8554 16.0182 41.2537 15.8832 40.6438 15.8794H40.4978C38.5917 15.8794 37.247 16.5257 36.4636 17.8181C35.6802 19.1106 35.1427 20.8554 34.8506 23.0524L34.0458 28.7955C33.8987 29.904 33.8013 30.9016 33.7538 31.7884C33.6926 32.549 33.7673 33.3141 33.9745 34.0497C34.1358 34.6287 34.4954 35.1362 34.9933 35.4863C35.6592 35.8654 36.4253 36.0414 37.1937 35.9918H37.4144C38.1058 35.9808 38.7894 35.8468 39.4315 35.5961C40.1633 35.3204 40.8642 34.9715 41.5233 34.5552L41.3773 35.7723H47.4659L51.5747 7.25312C51.9663 4.96077 51.6369 3.17831 50.5866 1.90577ZM42.1889 30.1024C41.8968 31.1089 41.4316 31.6122 40.7932 31.6122H40.6472C39.9137 31.6122 39.694 30.8229 39.9884 29.2444L40.8679 22.6301C41.16 21.0516 41.6489 20.2623 42.3349 20.2623H42.8375C43.0072 20.2637 43.1719 20.3208 43.3051 20.4245C43.4378 20.5282 43.5315 20.6725 43.5709 20.8343L42.1889 30.1024Z" fill="#ffffff"/>
<path d="M62.1933 14.2233L63.212 7.32631C63.3135 6.7674 63.3006 6.19436 63.1746 5.6403C63.0524 5.18471 62.7977 4.97521 62.4038 4.97521H62.2578C62.0503 4.98442 61.8499 5.05209 61.6805 5.17005C61.5114 5.288 61.3803 5.45128 61.3036 5.6403C61.036 6.16988 60.8614 6.7399 60.7874 7.32631L60.2848 10.4156C60.0434 11.7394 60.3331 13.1034 61.093 14.2233C61.8601 15.2687 62.6806 16.2754 63.5516 17.2395C64.4664 18.261 65.2759 19.3682 65.9693 20.545C66.678 21.7422 66.911 23.2752 66.6689 25.1441L66.0814 28.8021C65.8912 30.8017 64.9656 32.6655 63.4769 34.0464C62.1243 35.3068 60.3249 36.0034 58.4579 35.9885H57.2117C55.2557 35.9885 53.764 35.3423 52.7361 34.0497C51.7082 32.7573 51.3686 31.0092 51.7174 28.8055L52.6716 21.7655H58.1048L57.086 28.6625C56.941 30.2432 57.2806 31.0335 58.1048 31.0335H58.3968C59.2773 31.0335 59.8434 30.2432 60.0947 28.6625L60.5327 25.5731C60.6903 24.6824 60.6142 23.767 60.312 22.9128C60.0135 22.1353 59.5931 21.4083 59.0658 20.7578C58.5112 20.0684 57.9248 19.4099 57.3068 18.7825C56.6656 18.1304 56.0884 17.4212 55.5817 16.6642C55.0588 15.8736 54.652 15.015 54.3728 14.1136C54.072 13.0488 54.0221 11.9311 54.2268 10.8446L54.7396 7.18661C54.9909 5.20802 55.9213 3.3718 57.3781 1.97894C58.0474 1.33991 58.8386 0.836486 59.7069 0.497521C60.5752 0.158557 61.5032 -0.00928999 62.4378 0.00361415H63.1169C65.0729 0.00361415 66.5762 0.649868 67.6265 1.94237C68.6768 3.23486 69.0164 4.98186 68.6452 7.18332L67.6265 14.2233H62.1933Z" fill="#ffffff"/>
<path d="M79.2332 14.2267L80.2519 7.3296C80.3531 6.76959 80.3402 6.19552 80.2145 5.6403C80.0923 5.18471 79.8376 4.97521 79.4437 4.97521H79.2977C79.0902 4.98485 78.8902 5.05266 78.7207 5.17054C78.5516 5.28847 78.4206 5.45155 78.3435 5.6403C78.0759 6.17108 77.9014 6.74213 77.8273 7.3296L77.3248 10.4157C77.0833 11.7394 77.373 13.1034 78.1329 14.2233C78.899 15.2704 79.7198 16.2783 80.5915 17.2429C81.5053 18.2638 82.3151 19.3698 83.0092 20.545C83.7179 21.7422 83.9509 23.2752 83.7088 25.1441L83.1213 28.8021C82.9366 30.8022 82.0156 32.6684 80.5303 34.0531C79.1748 35.3104 77.375 36.0051 75.508 35.9918H74.2584C72.3024 35.9918 70.8117 35.3443 69.7862 34.0497C68.7607 32.755 68.4211 31.007 68.7674 28.8055L69.7251 21.7655H75.1583L74.1395 28.6625C73.9925 30.2432 74.3321 31.0336 75.1583 31.0336H75.4367C76.3172 31.0336 76.8833 30.2432 77.1346 28.6625L77.576 25.5731C77.7336 24.6824 77.6575 23.767 77.3553 22.9128C77.0568 22.1353 76.6364 21.4083 76.1091 20.7578C75.5562 20.0704 74.9681 19.4111 74.3467 18.7825C73.7079 18.1295 73.1317 17.4204 72.625 16.6642C72.0994 15.8751 71.6922 15.0161 71.4161 14.1136C71.1139 13.0491 71.063 11.9313 71.2667 10.8446L71.7795 7.18661C72.0335 5.20815 72.9649 3.37243 74.4214 1.97895C75.0914 1.33981 75.8832 0.836347 76.7519 0.497389C77.6209 0.158431 78.5493 -0.00935743 79.4845 0.0036222H80.1432C82.0992 0.0036222 83.6035 0.650989 84.6562 1.9457C85.7089 3.24041 86.063 4.98851 85.7191 7.18997L84.7003 14.2299L79.2332 14.2267Z" fill="#ffffff"/>
<path d="M32.6502 1.93904C31.4549 0.644328 29.8294 -0.00192691 27.7739 0.000289842H19.0468L13.8751 35.7756H20.327L21.1691 29.9561H23.519C25.3766 30.0099 27.2104 29.5364 28.7994 28.5926C30.2664 27.6815 31.1957 26.0775 31.5873 23.7807L33.9372 7.4028C34.2791 5.05279 33.85 3.23154 32.6502 1.93904ZM27.2645 8.42039L25.2848 21.7821C25.0878 23.6976 24.5502 24.6553 23.6718 24.6553H21.9739L24.7618 5.33103H26.2967C27.2747 5.33103 27.5939 6.3608 27.2543 8.42039H27.2645Z" fill="#ffffff"/>
</g>
</g>
</svg>
